# xmcd
# Track frame offsets:
# 150
# 13800
# 26990
# 46200
# 59060
# 73342
# 85585
# 95792
# 111567
# 125730
# 140942
# 153315
# 165917
# 179675
#
# Disc length: 2546 seconds
# Revision: 2
# Processed by: cddbd v1.5.2PL0 Copyright (c) Steve Scherf et al.
# Submitted via: VisiTrax 2.11.3.279 - For more info visit www.synapsa.com
#
DISCID=d709f00e
DTITLE=Slim Dusty - Slim Dusty Sings Joy McKean
DYEAR=1991
DGENRE=Australian Country
TTITLE0=Slim Dusty - Lights On The Hill
TTITLE1=Slim Dusty - The Front Row
TTITLE2=Slim Dusty - Grandfather Johnson
TTITLE3=Slim Dusty - Walk A Country Mile
TTITLE4=Slim Dusty - Marty
TTITLE5=Slim Dusty - Ghosts Of The Golden Mile
TTITLE6=Slim Dusty - D Towards The Head
TTITLE7=Slim Dusty - Indian Pacific
TTITLE8=Slim Dusty - Cattlemen From The High Plains
TTITLE9=Slim Dusty - Kelly's Offsider
TTITLE10=Slim Dusty - Nulla Creek
TTITLE11=Slim Dusty - Angel Of Goulburn Hill
TTITLE12=Slim Dusty - The Biggest Disappointment
TTITLE13=Slim Dusty With Joy McKean - Our Wedding Waltz
EXTD=1991 EMI Music Australia 1996 EMI Music Australia
EXTT0=
EXTT1=
EXTT2=
EXTT3=
EXTT4=
EXTT5=
EXTT6=
EXTT7=
EXTT8=
EXTT9=
EXTT10=
EXTT11=
EXTT12=
EXTT13=
PLAYORDER=
